<svg xmlns="http://www.w3.org/2000/svg" width="32" height="32" viewBox="0 0 32 32" shape-rendering="crispEdges"><title>body_corner_right_down</title>
<rect x="27" y="6" width="5" height="1" fill="#211f30"/>
<rect x="23" y="7" width="4" height="1" fill="#211f30"/>
<rect x="27" y="7" width="5" height="1" fill="#177aa8"/>
<rect x="21" y="8" width="2" height="1" fill="#211f30"/>
<rect x="23" y="8" width="9" height="1" fill="#177aa8"/>
<rect x="19" y="9" width="2" height="1" fill="#211f30"/>
<rect x="21" y="9" width="11" height="1" fill="#177aa8"/>
<rect x="17" y="10" width="2" height="1" fill="#211f30"/>
<rect x="19" y="10" width="8" height="1" fill="#177aa8"/>
<rect x="27" y="10" width="5" height="1" fill="#2facda"/>
<rect x="16" y="11" width="1" height="1" fill="#211f30"/>
<rect x="17" y="11" width="7" height="1" fill="#177aa8"/>
<rect x="24" y="11" width="8" height="1" fill="#2facda"/>
<rect x="15" y="12" width="1" height="1" fill="#211f30"/>
<rect x="16" y="12" width="6" height="1" fill="#177aa8"/>
<rect x="22" y="12" width="10" height="1" fill="#2facda"/>
<rect x="14" y="13" width="1" height="1" fill="#211f30"/>
<rect x="15" y="13" width="5" height="1" fill="#177aa8"/>
<rect x="20" y="13" width="8" height="1" fill="#2facda"/>
<rect x="28" y="13" width="4" height="1" fill="#6cd9f1"/>
<rect x="13" y="14" width="1" height="1" fill="#211f30"/>
<rect x="14" y="14" width="5" height="1" fill="#177aa8"/>
<rect x="19" y="14" width="6" height="1" fill="#2facda"/>
<rect x="25" y="14" width="7" height="1" fill="#6cd9f1"/>
<rect x="12" y="15" width="1" height="1" fill="#211f30"/>
<rect x="13" y="15" width="4" height="1" fill="#177aa8"/>
<rect x="17" y="15" width="6" height="1" fill="#2facda"/>
<rect x="23" y="15" width="9" height="1" fill="#6cd9f1"/>
<rect x="11" y="16" width="1" height="1" fill="#211f30"/>
<rect x="12" y="16" width="4" height="1" fill="#177aa8"/>
<rect x="16" y="16" width="5" height="1" fill="#2facda"/>
<rect x="21" y="16" width="3" height="1" fill="#6cd9f1"/>
<rect x="24" y="16" width="3" height="1" fill="#2facda"/>
<rect x="27" y="16" width="5" height="1" fill="#6cd9f1"/>
<rect x="10" y="17" width="1" height="1" fill="#211f30"/>
<rect x="11" y="17" width="4" height="1" fill="#177aa8"/>
<rect x="15" y="17" width="5" height="1" fill="#2facda"/>
<rect x="20" y="17" width="4" height="1" fill="#6cd9f1"/>
<rect x="24" y="17" width="3" height="1" fill="#2facda"/>
<rect x="27" y="17" width="5" height="1" fill="#6cd9f1"/>
<rect x="10" y="18" width="1" height="1" fill="#211f30"/>
<rect x="11" y="18" width="4" height="1" fill="#177aa8"/>
<rect x="15" y="18" width="4" height="1" fill="#2facda"/>
<rect x="19" y="18" width="7" height="1" fill="#6cd9f1"/>
<rect x="26" y="18" width="1" height="1" fill="#acf7fa"/>
<rect x="27" y="18" width="5" height="1" fill="#6cd9f1"/>
<rect x="9" y="19" width="1" height="1" fill="#211f30"/>
<rect x="10" y="19" width="4" height="1" fill="#177aa8"/>
<rect x="14" y="19" width="4" height="1" fill="#2facda"/>
<rect x="18" y="19" width="1" height="1" fill="#6cd9f1"/>
<rect x="19" y="19" width="3" height="1" fill="#2facda"/>
<rect x="22" y="19" width="10" height="1" fill="#6cd9f1"/>
<rect x="9" y="20" width="1" height="1" fill="#211f30"/>
<rect x="10" y="20" width="3" height="1" fill="#177aa8"/>
<rect x="13" y="20" width="4" height="1" fill="#2facda"/>
<rect x="17" y="20" width="2" height="1" fill="#6cd9f1"/>
<rect x="19" y="20" width="3" height="1" fill="#2facda"/>
<rect x="22" y="20" width="10" height="1" fill="#6cd9f1"/>
<rect x="8" y="21" width="1" height="1" fill="#211f30"/>
<rect x="9" y="21" width="4" height="1" fill="#177aa8"/>
<rect x="13" y="21" width="3" height="1" fill="#2facda"/>
<rect x="16" y="21" width="5" height="1" fill="#6cd9f1"/>
<rect x="21" y="21" width="1" height="1" fill="#acf7fa"/>
<rect x="22" y="21" width="7" height="1" fill="#6cd9f1"/>
<rect x="29" y="21" width="3" height="1" fill="#acf7fa"/>
<rect x="8" y="22" width="1" height="1" fill="#211f30"/>
<rect x="9" y="22" width="3" height="1" fill="#177aa8"/>
<rect x="12" y="22" width="4" height="1" fill="#2facda"/>
<rect x="16" y="22" width="10" height="1" fill="#6cd9f1"/>
<rect x="26" y="22" width="6" height="1" fill="#acf7fa"/>
<rect x="7" y="23" width="1" height="1" fill="#211f30"/>
<rect x="8" y="23" width="4" height="1" fill="#177aa8"/>
<rect x="12" y="23" width="3" height="1" fill="#2facda"/>
<rect x="15" y="23" width="10" height="1" fill="#6cd9f1"/>
<rect x="25" y="23" width="7" height="1" fill="#acf7fa"/>
<rect x="7" y="24" width="1" height="1" fill="#211f30"/>
<rect x="8" y="24" width="3" height="1" fill="#177aa8"/>
<rect x="11" y="24" width="4" height="1" fill="#2facda"/>
<rect x="15" y="24" width="9" height="1" fill="#6cd9f1"/>
<rect x="24" y="24" width="8" height="1" fill="#acf7fa"/>
<rect x="7" y="25" width="1" height="1" fill="#211f30"/>
<rect x="8" y="25" width="3" height="1" fill="#177aa8"/>
<rect x="11" y="25" width="3" height="1" fill="#2facda"/>
<rect x="14" y="25" width="1" height="1" fill="#6cd9f1"/>
<rect x="15" y="25" width="3" height="1" fill="#2facda"/>
<rect x="18" y="25" width="5" height="1" fill="#6cd9f1"/>
<rect x="23" y="25" width="7" height="1" fill="#acf7fa"/>
<rect x="30" y="25" width="2" height="1" fill="#211f30"/>
<rect x="7" y="26" width="1" height="1" fill="#211f30"/>
<rect x="8" y="26" width="3" height="1" fill="#177aa8"/>
<rect x="11" y="26" width="3" height="1" fill="#2facda"/>
<rect x="14" y="26" width="1" height="1" fill="#6cd9f1"/>
<rect x="15" y="26" width="3" height="1" fill="#2facda"/>
<rect x="18" y="26" width="4" height="1" fill="#6cd9f1"/>
<rect x="22" y="26" width="6" height="1" fill="#acf7fa"/>
<rect x="28" y="26" width="2" height="1" fill="#211f30"/>
<rect x="6" y="27" width="1" height="1" fill="#211f30"/>
<rect x="7" y="27" width="3" height="1" fill="#177aa8"/>
<rect x="10" y="27" width="4" height="1" fill="#2facda"/>
<rect x="14" y="27" width="3" height="1" fill="#6cd9f1"/>
<rect x="17" y="27" width="1" height="1" fill="#acf7fa"/>
<rect x="18" y="27" width="4" height="1" fill="#6cd9f1"/>
<rect x="22" y="27" width="5" height="1" fill="#acf7fa"/>
<rect x="27" y="27" width="1" height="1" fill="#211f30"/>
<rect x="6" y="28" width="1" height="1" fill="#211f30"/>
<rect x="7" y="28" width="3" height="1" fill="#177aa8"/>
<rect x="10" y="28" width="3" height="1" fill="#2facda"/>
<rect x="13" y="28" width="9" height="1" fill="#6cd9f1"/>
<rect x="22" y="28" width="4" height="1" fill="#acf7fa"/>
<rect x="26" y="28" width="1" height="1" fill="#211f30"/>
<rect x="6" y="29" width="1" height="1" fill="#211f30"/>
<rect x="7" y="29" width="3" height="1" fill="#177aa8"/>
<rect x="10" y="29" width="3" height="1" fill="#2facda"/>
<rect x="13" y="29" width="8" height="1" fill="#6cd9f1"/>
<rect x="21" y="29" width="5" height="1" fill="#acf7fa"/>
<rect x="26" y="29" width="1" height="1" fill="#211f30"/>
<rect x="6" y="30" width="1" height="1" fill="#211f30"/>
<rect x="7" y="30" width="3" height="1" fill="#177aa8"/>
<rect x="10" y="30" width="3" height="1" fill="#2facda"/>
<rect x="13" y="30" width="8" height="1" fill="#6cd9f1"/>
<rect x="21" y="30" width="4" height="1" fill="#acf7fa"/>
<rect x="25" y="30" width="1" height="1" fill="#211f30"/>
<rect x="6" y="31" width="1" height="1" fill="#211f30"/>
<rect x="7" y="31" width="3" height="1" fill="#177aa8"/>
<rect x="10" y="31" width="3" height="1" fill="#2facda"/>
<rect x="13" y="31" width="8" height="1" fill="#6cd9f1"/>
<rect x="21" y="31" width="4" height="1" fill="#acf7fa"/>
<rect x="25" y="31" width="1" height="1" fill="#211f30"/>
</svg>
