<svg xmlns="http://www.w3.org/2000/svg" width="32" height="32" viewBox="0 0 32 32" shape-rendering="crispEdges"><title>tail_turn_left_to_down_3</title>
<rect x="22" y="4" width="3" height="1" fill="#211f30"/>
<rect x="21" y="5" width="1" height="1" fill="#211f30"/>
<rect x="22" y="5" width="1" height="1" fill="#f8d76d"/>
<rect x="23" y="5" width="1" height="1" fill="#211f30"/>
<rect x="20" y="6" width="1" height="1" fill="#211f30"/>
<rect x="21" y="6" width="2" height="1" fill="#f8d76d"/>
<rect x="23" y="6" width="1" height="1" fill="#211f30"/>
<rect x="18" y="7" width="2" height="1" fill="#211f30"/>
<rect x="20" y="7" width="3" height="1" fill="#f8d76d"/>
<rect x="23" y="7" width="1" height="1" fill="#211f30"/>
<rect x="17" y="8" width="1" height="1" fill="#211f30"/>
<rect x="18" y="8" width="1" height="1" fill="#2facda"/>
<rect x="19" y="8" width="1" height="1" fill="#6cd9f1"/>
<rect x="20" y="8" width="3" height="1" fill="#f8d76d"/>
<rect x="23" y="8" width="1" height="1" fill="#211f30"/>
<rect x="15" y="9" width="2" height="1" fill="#211f30"/>
<rect x="17" y="9" width="1" height="1" fill="#2facda"/>
<rect x="18" y="9" width="4" height="1" fill="#6cd9f1"/>
<rect x="22" y="9" width="1" height="1" fill="#211f30"/>
<rect x="13" y="10" width="2" height="1" fill="#211f30"/>
<rect x="15" y="10" width="3" height="1" fill="#2facda"/>
<rect x="18" y="10" width="4" height="1" fill="#6cd9f1"/>
<rect x="22" y="10" width="1" height="1" fill="#211f30"/>
<rect x="12" y="11" width="1" height="1" fill="#211f30"/>
<rect x="13" y="11" width="1" height="1" fill="#177aa8"/>
<rect x="14" y="11" width="3" height="1" fill="#2facda"/>
<rect x="17" y="11" width="5" height="1" fill="#6cd9f1"/>
<rect x="22" y="11" width="1" height="1" fill="#211f30"/>
<rect x="10" y="12" width="2" height="1" fill="#211f30"/>
<rect x="12" y="12" width="1" height="1" fill="#177aa8"/>
<rect x="13" y="12" width="3" height="1" fill="#2facda"/>
<rect x="16" y="12" width="6" height="1" fill="#6cd9f1"/>
<rect x="22" y="12" width="1" height="1" fill="#211f30"/>
<rect x="9" y="13" width="1" height="1" fill="#211f30"/>
<rect x="10" y="13" width="2" height="1" fill="#177aa8"/>
<rect x="12" y="13" width="4" height="1" fill="#2facda"/>
<rect x="16" y="13" width="6" height="1" fill="#6cd9f1"/>
<rect x="22" y="13" width="1" height="1" fill="#211f30"/>
<rect x="7" y="14" width="2" height="1" fill="#211f30"/>
<rect x="9" y="14" width="3" height="1" fill="#177aa8"/>
<rect x="12" y="14" width="3" height="1" fill="#2facda"/>
<rect x="15" y="14" width="7" height="1" fill="#6cd9f1"/>
<rect x="22" y="14" width="1" height="1" fill="#211f30"/>
<rect x="5" y="15" width="2" height="1" fill="#211f30"/>
<rect x="7" y="15" width="4" height="1" fill="#177aa8"/>
<rect x="11" y="15" width="4" height="1" fill="#2facda"/>
<rect x="15" y="15" width="7" height="1" fill="#6cd9f1"/>
<rect x="22" y="15" width="1" height="1" fill="#211f30"/>
<rect x="4" y="16" width="1" height="1" fill="#211f30"/>
<rect x="5" y="16" width="5" height="1" fill="#177aa8"/>
<rect x="10" y="16" width="4" height="1" fill="#2facda"/>
<rect x="14" y="16" width="8" height="1" fill="#6cd9f1"/>
<rect x="22" y="16" width="1" height="1" fill="#211f30"/>
<rect x="3" y="17" width="1" height="1" fill="#211f30"/>
<rect x="4" y="17" width="6" height="1" fill="#177aa8"/>
<rect x="10" y="17" width="3" height="1" fill="#2facda"/>
<rect x="13" y="17" width="8" height="1" fill="#6cd9f1"/>
<rect x="21" y="17" width="1" height="1" fill="#211f30"/>
<rect x="3" y="18" width="1" height="1" fill="#211f30"/>
<rect x="4" y="18" width="5" height="1" fill="#177aa8"/>
<rect x="9" y="18" width="4" height="1" fill="#2facda"/>
<rect x="13" y="18" width="8" height="1" fill="#6cd9f1"/>
<rect x="21" y="18" width="1" height="1" fill="#211f30"/>
<rect x="2" y="19" width="1" height="1" fill="#211f30"/>
<rect x="3" y="19" width="5" height="1" fill="#177aa8"/>
<rect x="8" y="19" width="7" height="1" fill="#2facda"/>
<rect x="15" y="19" width="5" height="1" fill="#6cd9f1"/>
<rect x="20" y="19" width="1" height="1" fill="#acf7fa"/>
<rect x="21" y="19" width="1" height="1" fill="#211f30"/>
<rect x="1" y="20" width="1" height="1" fill="#211f30"/>
<rect x="2" y="20" width="6" height="1" fill="#177aa8"/>
<rect x="8" y="20" width="3" height="1" fill="#2facda"/>
<rect x="11" y="20" width="2" height="1" fill="#6cd9f1"/>
<rect x="13" y="20" width="2" height="1" fill="#2facda"/>
<rect x="15" y="20" width="5" height="1" fill="#6cd9f1"/>
<rect x="20" y="20" width="1" height="1" fill="#acf7fa"/>
<rect x="21" y="20" width="1" height="1" fill="#211f30"/>
<rect x="1" y="21" width="1" height="1" fill="#211f30"/>
<rect x="2" y="21" width="5" height="1" fill="#177aa8"/>
<rect x="7" y="21" width="4" height="1" fill="#2facda"/>
<rect x="11" y="21" width="8" height="1" fill="#6cd9f1"/>
<rect x="19" y="21" width="2" height="1" fill="#acf7fa"/>
<rect x="21" y="21" width="1" height="1" fill="#211f30"/>
<rect x="0" y="22" width="1" height="1" fill="#211f30"/>
<rect x="1" y="22" width="5" height="1" fill="#177aa8"/>
<rect x="6" y="22" width="4" height="1" fill="#2facda"/>
<rect x="10" y="22" width="8" height="1" fill="#6cd9f1"/>
<rect x="18" y="22" width="3" height="1" fill="#acf7fa"/>
<rect x="21" y="22" width="1" height="1" fill="#211f30"/>
<rect x="0" y="23" width="6" height="1" fill="#177aa8"/>
<rect x="6" y="23" width="3" height="1" fill="#2facda"/>
<rect x="9" y="23" width="9" height="1" fill="#6cd9f1"/>
<rect x="18" y="23" width="3" height="1" fill="#acf7fa"/>
<rect x="21" y="23" width="1" height="1" fill="#211f30"/>
<rect x="0" y="24" width="5" height="1" fill="#177aa8"/>
<rect x="5" y="24" width="4" height="1" fill="#2facda"/>
<rect x="9" y="24" width="8" height="1" fill="#6cd9f1"/>
<rect x="17" y="24" width="3" height="1" fill="#acf7fa"/>
<rect x="20" y="24" width="1" height="1" fill="#211f30"/>
<rect x="0" y="25" width="4" height="1" fill="#177aa8"/>
<rect x="4" y="25" width="4" height="1" fill="#2facda"/>
<rect x="8" y="25" width="8" height="1" fill="#6cd9f1"/>
<rect x="16" y="25" width="4" height="1" fill="#acf7fa"/>
<rect x="20" y="25" width="1" height="1" fill="#211f30"/>
<rect x="0" y="26" width="4" height="1" fill="#177aa8"/>
<rect x="4" y="26" width="3" height="1" fill="#2facda"/>
<rect x="7" y="26" width="9" height="1" fill="#6cd9f1"/>
<rect x="16" y="26" width="4" height="1" fill="#acf7fa"/>
<rect x="20" y="26" width="1" height="1" fill="#211f30"/>
<rect x="0" y="27" width="3" height="1" fill="#177aa8"/>
<rect x="3" y="27" width="4" height="1" fill="#2facda"/>
<rect x="7" y="27" width="8" height="1" fill="#6cd9f1"/>
<rect x="15" y="27" width="5" height="1" fill="#acf7fa"/>
<rect x="20" y="27" width="1" height="1" fill="#211f30"/>
<rect x="0" y="28" width="3" height="1" fill="#177aa8"/>
<rect x="3" y="28" width="3" height="1" fill="#2facda"/>
<rect x="6" y="28" width="8" height="1" fill="#6cd9f1"/>
<rect x="14" y="28" width="5" height="1" fill="#acf7fa"/>
<rect x="19" y="28" width="1" height="1" fill="#211f30"/>
<rect x="0" y="29" width="2" height="1" fill="#177aa8"/>
<rect x="2" y="29" width="3" height="1" fill="#2facda"/>
<rect x="5" y="29" width="9" height="1" fill="#6cd9f1"/>
<rect x="14" y="29" width="4" height="1" fill="#acf7fa"/>
<rect x="18" y="29" width="1" height="1" fill="#211f30"/>
<rect x="0" y="30" width="1" height="1" fill="#177aa8"/>
<rect x="1" y="30" width="4" height="1" fill="#2facda"/>
<rect x="5" y="30" width="8" height="1" fill="#6cd9f1"/>
<rect x="13" y="30" width="5" height="1" fill="#acf7fa"/>
<rect x="18" y="30" width="1" height="1" fill="#211f30"/>
<rect x="0" y="31" width="1" height="1" fill="#177aa8"/>
<rect x="1" y="31" width="3" height="1" fill="#2facda"/>
<rect x="4" y="31" width="8" height="1" fill="#6cd9f1"/>
<rect x="12" y="31" width="5" height="1" fill="#acf7fa"/>
<rect x="17" y="31" width="1" height="1" fill="#211f30"/>
</svg>
