<svg xmlns="http://www.w3.org/2000/svg" width="32" height="32" viewBox="0 0 32 32" shape-rendering="crispEdges"><title>tail_turn_up_to_right_4</title>
<rect x="22" y="7" width="7" height="1" fill="#211f30"/>
<rect x="20" y="8" width="2" height="1" fill="#211f30"/>
<rect x="22" y="8" width="7" height="1" fill="#acf7fa"/>
<rect x="29" y="8" width="3" height="1" fill="#211f30"/>
<rect x="17" y="9" width="3" height="1" fill="#211f30"/>
<rect x="20" y="9" width="12" height="1" fill="#acf7fa"/>
<rect x="14" y="10" width="3" height="1" fill="#211f30"/>
<rect x="17" y="10" width="15" height="1" fill="#acf7fa"/>
<rect x="11" y="11" width="3" height="1" fill="#211f30"/>
<rect x="14" y="11" width="12" height="1" fill="#6cd9f1"/>
<rect x="26" y="11" width="6" height="1" fill="#acf7fa"/>
<rect x="8" y="12" width="3" height="1" fill="#211f30"/>
<rect x="11" y="12" width="21" height="1" fill="#6cd9f1"/>
<rect x="5" y="13" width="3" height="1" fill="#211f30"/>
<rect x="8" y="13" width="24" height="1" fill="#6cd9f1"/>
<rect x="2" y="14" width="3" height="1" fill="#211f30"/>
<rect x="5" y="14" width="3" height="1" fill="#f8d76d"/>
<rect x="8" y="14" width="24" height="1" fill="#6cd9f1"/>
<rect x="1" y="15" width="3" height="1" fill="#211f30"/>
<rect x="4" y="15" width="4" height="1" fill="#f8d76d"/>
<rect x="8" y="15" width="12" height="1" fill="#6cd9f1"/>
<rect x="20" y="15" width="2" height="1" fill="#2facda"/>
<rect x="22" y="15" width="10" height="1" fill="#6cd9f1"/>
<rect x="4" y="16" width="2" height="1" fill="#211f30"/>
<rect x="6" y="16" width="1" height="1" fill="#f8d76d"/>
<rect x="7" y="16" width="12" height="1" fill="#6cd9f1"/>
<rect x="19" y="16" width="2" height="1" fill="#2facda"/>
<rect x="21" y="16" width="11" height="1" fill="#6cd9f1"/>
<rect x="6" y="17" width="1" height="1" fill="#211f30"/>
<rect x="7" y="17" width="9" height="1" fill="#2facda"/>
<rect x="16" y="17" width="3" height="1" fill="#6cd9f1"/>
<rect x="19" y="17" width="2" height="1" fill="#2facda"/>
<rect x="21" y="17" width="11" height="1" fill="#6cd9f1"/>
<rect x="7" y="18" width="2" height="1" fill="#211f30"/>
<rect x="9" y="18" width="16" height="1" fill="#2facda"/>
<rect x="25" y="18" width="7" height="1" fill="#6cd9f1"/>
<rect x="9" y="19" width="2" height="1" fill="#211f30"/>
<rect x="11" y="19" width="21" height="1" fill="#2facda"/>
<rect x="11" y="20" width="1" height="1" fill="#211f30"/>
<rect x="12" y="20" width="4" height="1" fill="#177aa8"/>
<rect x="16" y="20" width="16" height="1" fill="#2facda"/>
<rect x="12" y="21" width="2" height="1" fill="#211f30"/>
<rect x="14" y="21" width="11" height="1" fill="#177aa8"/>
<rect x="25" y="21" width="7" height="1" fill="#2facda"/>
<rect x="14" y="22" width="1" height="1" fill="#211f30"/>
<rect x="15" y="22" width="17" height="1" fill="#177aa8"/>
<rect x="15" y="23" width="2" height="1" fill="#211f30"/>
<rect x="17" y="23" width="15" height="1" fill="#177aa8"/>
<rect x="17" y="24" width="2" height="1" fill="#211f30"/>
<rect x="19" y="24" width="13" height="1" fill="#177aa8"/>
<rect x="19" y="25" width="1" height="1" fill="#211f30"/>
<rect x="20" y="25" width="12" height="1" fill="#177aa8"/>
<rect x="20" y="26" width="9" height="1" fill="#211f30"/>
<rect x="29" y="26" width="3" height="1" fill="#177aa8"/>
<rect x="29" y="27" width="3" height="1" fill="#211f30"/>
</svg>
