<svg xmlns="http://www.w3.org/2000/svg" width="32" height="32" viewBox="0 0 32 32" shape-rendering="crispEdges"><title>tail_turn_up_to_left_4</title>
<rect x="7" y="6" width="2" height="1" fill="#211f30"/>
<rect x="1" y="7" width="6" height="1" fill="#211f30"/>
<rect x="7" y="7" width="2" height="1" fill="#177aa8"/>
<rect x="9" y="7" width="3" height="1" fill="#211f30"/>
<rect x="0" y="8" width="1" height="1" fill="#211f30"/>
<rect x="1" y="8" width="11" height="1" fill="#177aa8"/>
<rect x="12" y="8" width="3" height="1" fill="#211f30"/>
<rect x="0" y="9" width="15" height="1" fill="#177aa8"/>
<rect x="15" y="9" width="3" height="1" fill="#211f30"/>
<rect x="0" y="10" width="18" height="1" fill="#177aa8"/>
<rect x="18" y="10" width="3" height="1" fill="#211f30"/>
<rect x="0" y="11" width="16" height="1" fill="#177aa8"/>
<rect x="16" y="11" width="5" height="1" fill="#2facda"/>
<rect x="21" y="11" width="2" height="1" fill="#211f30"/>
<rect x="0" y="12" width="6" height="1" fill="#177aa8"/>
<rect x="6" y="12" width="17" height="1" fill="#2facda"/>
<rect x="23" y="12" width="3" height="1" fill="#211f30"/>
<rect x="0" y="13" width="25" height="1" fill="#2facda"/>
<rect x="25" y="13" width="1" height="1" fill="#f8d76d"/>
<rect x="26" y="13" width="2" height="1" fill="#211f30"/>
<rect x="29" y="13" width="1" height="1" fill="#211f30"/>
<rect x="0" y="14" width="16" height="1" fill="#2facda"/>
<rect x="16" y="14" width="8" height="1" fill="#6cd9f1"/>
<rect x="24" y="14" width="4" height="1" fill="#f8d76d"/>
<rect x="28" y="14" width="2" height="1" fill="#211f30"/>
<rect x="0" y="15" width="6" height="1" fill="#2facda"/>
<rect x="6" y="15" width="4" height="1" fill="#6cd9f1"/>
<rect x="10" y="15" width="2" height="1" fill="#2facda"/>
<rect x="12" y="15" width="12" height="1" fill="#6cd9f1"/>
<rect x="24" y="15" width="3" height="1" fill="#f8d76d"/>
<rect x="27" y="15" width="2" height="1" fill="#211f30"/>
<rect x="0" y="16" width="11" height="1" fill="#6cd9f1"/>
<rect x="11" y="16" width="2" height="1" fill="#2facda"/>
<rect x="13" y="16" width="12" height="1" fill="#6cd9f1"/>
<rect x="25" y="16" width="2" height="1" fill="#211f30"/>
<rect x="0" y="17" width="11" height="1" fill="#6cd9f1"/>
<rect x="11" y="17" width="2" height="1" fill="#2facda"/>
<rect x="13" y="17" width="10" height="1" fill="#6cd9f1"/>
<rect x="23" y="17" width="2" height="1" fill="#211f30"/>
<rect x="0" y="18" width="22" height="1" fill="#6cd9f1"/>
<rect x="22" y="18" width="1" height="1" fill="#211f30"/>
<rect x="0" y="19" width="20" height="1" fill="#6cd9f1"/>
<rect x="20" y="19" width="2" height="1" fill="#211f30"/>
<rect x="0" y="20" width="18" height="1" fill="#6cd9f1"/>
<rect x="18" y="20" width="2" height="1" fill="#211f30"/>
<rect x="0" y="21" width="16" height="1" fill="#6cd9f1"/>
<rect x="16" y="21" width="1" height="1" fill="#acf7fa"/>
<rect x="17" y="21" width="1" height="1" fill="#211f30"/>
<rect x="0" y="22" width="7" height="1" fill="#6cd9f1"/>
<rect x="7" y="22" width="8" height="1" fill="#acf7fa"/>
<rect x="15" y="22" width="2" height="1" fill="#211f30"/>
<rect x="0" y="23" width="13" height="1" fill="#acf7fa"/>
<rect x="13" y="23" width="2" height="1" fill="#211f30"/>
<rect x="0" y="24" width="12" height="1" fill="#acf7fa"/>
<rect x="12" y="24" width="1" height="1" fill="#211f30"/>
<rect x="0" y="25" width="9" height="1" fill="#acf7fa"/>
<rect x="9" y="25" width="3" height="1" fill="#211f30"/>
<rect x="0" y="26" width="2" height="1" fill="#acf7fa"/>
<rect x="2" y="26" width="7" height="1" fill="#211f30"/>
<rect x="0" y="27" width="2" height="1" fill="#211f30"/>
</svg>
