<svg xmlns="http://www.w3.org/2000/svg" width="32" height="32" viewBox="0 0 32 32" shape-rendering="crispEdges"><title>tail_turn_down_to_left_0</title>
<rect x="15" y="2" width="2" height="1" fill="#211f30"/>
<rect x="15" y="3" width="2" height="1" fill="#211f30"/>
<rect x="14" y="4" width="1" height="1" fill="#211f30"/>
<rect x="15" y="4" width="2" height="1" fill="#f8d76d"/>
<rect x="17" y="4" width="1" height="1" fill="#211f30"/>
<rect x="14" y="5" width="1" height="1" fill="#211f30"/>
<rect x="15" y="5" width="2" height="1" fill="#f8d76d"/>
<rect x="17" y="5" width="1" height="1" fill="#211f30"/>
<rect x="14" y="6" width="1" height="1" fill="#211f30"/>
<rect x="15" y="6" width="2" height="1" fill="#f8d76d"/>
<rect x="17" y="6" width="1" height="1" fill="#211f30"/>
<rect x="13" y="7" width="1" height="1" fill="#211f30"/>
<rect x="14" y="7" width="4" height="1" fill="#6cd9f1"/>
<rect x="18" y="7" width="1" height="1" fill="#211f30"/>
<rect x="13" y="8" width="1" height="1" fill="#211f30"/>
<rect x="14" y="8" width="4" height="1" fill="#6cd9f1"/>
<rect x="18" y="8" width="1" height="1" fill="#211f30"/>
<rect x="12" y="9" width="1" height="1" fill="#211f30"/>
<rect x="13" y="9" width="1" height="1" fill="#2facda"/>
<rect x="14" y="9" width="5" height="1" fill="#6cd9f1"/>
<rect x="19" y="9" width="1" height="1" fill="#211f30"/>
<rect x="12" y="10" width="1" height="1" fill="#211f30"/>
<rect x="13" y="10" width="1" height="1" fill="#2facda"/>
<rect x="14" y="10" width="5" height="1" fill="#6cd9f1"/>
<rect x="19" y="10" width="1" height="1" fill="#211f30"/>
<rect x="11" y="11" width="1" height="1" fill="#211f30"/>
<rect x="12" y="11" width="2" height="1" fill="#2facda"/>
<rect x="14" y="11" width="6" height="1" fill="#6cd9f1"/>
<rect x="20" y="11" width="1" height="1" fill="#211f30"/>
<rect x="11" y="12" width="1" height="1" fill="#211f30"/>
<rect x="12" y="12" width="2" height="1" fill="#2facda"/>
<rect x="14" y="12" width="6" height="1" fill="#6cd9f1"/>
<rect x="20" y="12" width="1" height="1" fill="#211f30"/>
<rect x="10" y="13" width="1" height="1" fill="#211f30"/>
<rect x="11" y="13" width="3" height="1" fill="#2facda"/>
<rect x="14" y="13" width="7" height="1" fill="#6cd9f1"/>
<rect x="21" y="13" width="1" height="1" fill="#211f30"/>
<rect x="10" y="14" width="1" height="1" fill="#211f30"/>
<rect x="11" y="14" width="3" height="1" fill="#2facda"/>
<rect x="14" y="14" width="7" height="1" fill="#6cd9f1"/>
<rect x="21" y="14" width="1" height="1" fill="#211f30"/>
<rect x="9" y="15" width="1" height="1" fill="#211f30"/>
<rect x="10" y="15" width="1" height="1" fill="#177aa8"/>
<rect x="11" y="15" width="3" height="1" fill="#2facda"/>
<rect x="14" y="15" width="8" height="1" fill="#6cd9f1"/>
<rect x="22" y="15" width="1" height="1" fill="#211f30"/>
<rect x="9" y="16" width="1" height="1" fill="#211f30"/>
<rect x="10" y="16" width="1" height="1" fill="#177aa8"/>
<rect x="11" y="16" width="3" height="1" fill="#2facda"/>
<rect x="14" y="16" width="8" height="1" fill="#6cd9f1"/>
<rect x="22" y="16" width="1" height="1" fill="#211f30"/>
<rect x="8" y="17" width="1" height="1" fill="#211f30"/>
<rect x="9" y="17" width="2" height="1" fill="#177aa8"/>
<rect x="11" y="17" width="3" height="1" fill="#2facda"/>
<rect x="14" y="17" width="8" height="1" fill="#6cd9f1"/>
<rect x="22" y="17" width="1" height="1" fill="#acf7fa"/>
<rect x="23" y="17" width="1" height="1" fill="#211f30"/>
<rect x="8" y="18" width="1" height="1" fill="#211f30"/>
<rect x="9" y="18" width="2" height="1" fill="#177aa8"/>
<rect x="11" y="18" width="3" height="1" fill="#2facda"/>
<rect x="14" y="18" width="8" height="1" fill="#6cd9f1"/>
<rect x="22" y="18" width="1" height="1" fill="#acf7fa"/>
<rect x="23" y="18" width="1" height="1" fill="#211f30"/>
<rect x="7" y="19" width="1" height="1" fill="#211f30"/>
<rect x="8" y="19" width="3" height="1" fill="#177aa8"/>
<rect x="11" y="19" width="3" height="1" fill="#2facda"/>
<rect x="14" y="19" width="8" height="1" fill="#6cd9f1"/>
<rect x="22" y="19" width="2" height="1" fill="#acf7fa"/>
<rect x="24" y="19" width="1" height="1" fill="#211f30"/>
<rect x="7" y="20" width="1" height="1" fill="#211f30"/>
<rect x="8" y="20" width="3" height="1" fill="#177aa8"/>
<rect x="11" y="20" width="3" height="1" fill="#2facda"/>
<rect x="14" y="20" width="1" height="1" fill="#6cd9f1"/>
<rect x="15" y="20" width="3" height="1" fill="#2facda"/>
<rect x="18" y="20" width="4" height="1" fill="#6cd9f1"/>
<rect x="22" y="20" width="2" height="1" fill="#acf7fa"/>
<rect x="24" y="20" width="1" height="1" fill="#211f30"/>
<rect x="6" y="21" width="1" height="1" fill="#211f30"/>
<rect x="7" y="21" width="4" height="1" fill="#177aa8"/>
<rect x="11" y="21" width="3" height="1" fill="#2facda"/>
<rect x="14" y="21" width="1" height="1" fill="#6cd9f1"/>
<rect x="15" y="21" width="3" height="1" fill="#2facda"/>
<rect x="18" y="21" width="4" height="1" fill="#6cd9f1"/>
<rect x="22" y="21" width="3" height="1" fill="#acf7fa"/>
<rect x="25" y="21" width="1" height="1" fill="#211f30"/>
<rect x="6" y="22" width="1" height="1" fill="#211f30"/>
<rect x="7" y="22" width="4" height="1" fill="#177aa8"/>
<rect x="11" y="22" width="3" height="1" fill="#2facda"/>
<rect x="14" y="22" width="8" height="1" fill="#6cd9f1"/>
<rect x="22" y="22" width="3" height="1" fill="#acf7fa"/>
<rect x="25" y="22" width="1" height="1" fill="#211f30"/>
<rect x="6" y="23" width="1" height="1" fill="#211f30"/>
<rect x="7" y="23" width="4" height="1" fill="#177aa8"/>
<rect x="11" y="23" width="3" height="1" fill="#2facda"/>
<rect x="14" y="23" width="8" height="1" fill="#6cd9f1"/>
<rect x="22" y="23" width="3" height="1" fill="#acf7fa"/>
<rect x="25" y="23" width="1" height="1" fill="#211f30"/>
<rect x="6" y="24" width="1" height="1" fill="#211f30"/>
<rect x="7" y="24" width="4" height="1" fill="#177aa8"/>
<rect x="11" y="24" width="3" height="1" fill="#2facda"/>
<rect x="14" y="24" width="8" height="1" fill="#6cd9f1"/>
<rect x="22" y="24" width="3" height="1" fill="#acf7fa"/>
<rect x="25" y="24" width="1" height="1" fill="#211f30"/>
<rect x="6" y="25" width="1" height="1" fill="#211f30"/>
<rect x="7" y="25" width="4" height="1" fill="#177aa8"/>
<rect x="11" y="25" width="3" height="1" fill="#2facda"/>
<rect x="14" y="25" width="8" height="1" fill="#6cd9f1"/>
<rect x="22" y="25" width="3" height="1" fill="#acf7fa"/>
<rect x="25" y="25" width="1" height="1" fill="#211f30"/>
<rect x="6" y="26" width="1" height="1" fill="#211f30"/>
<rect x="7" y="26" width="4" height="1" fill="#177aa8"/>
<rect x="11" y="26" width="3" height="1" fill="#2facda"/>
<rect x="14" y="26" width="8" height="1" fill="#6cd9f1"/>
<rect x="22" y="26" width="3" height="1" fill="#acf7fa"/>
<rect x="25" y="26" width="1" height="1" fill="#211f30"/>
<rect x="6" y="27" width="1" height="1" fill="#211f30"/>
<rect x="7" y="27" width="4" height="1" fill="#177aa8"/>
<rect x="11" y="27" width="3" height="1" fill="#2facda"/>
<rect x="14" y="27" width="8" height="1" fill="#6cd9f1"/>
<rect x="22" y="27" width="3" height="1" fill="#acf7fa"/>
<rect x="25" y="27" width="1" height="1" fill="#211f30"/>
<rect x="6" y="28" width="1" height="1" fill="#211f30"/>
<rect x="7" y="28" width="4" height="1" fill="#177aa8"/>
<rect x="11" y="28" width="3" height="1" fill="#2facda"/>
<rect x="14" y="28" width="8" height="1" fill="#6cd9f1"/>
<rect x="22" y="28" width="3" height="1" fill="#acf7fa"/>
<rect x="25" y="28" width="1" height="1" fill="#211f30"/>
<rect x="6" y="29" width="1" height="1" fill="#211f30"/>
<rect x="7" y="29" width="4" height="1" fill="#177aa8"/>
<rect x="11" y="29" width="3" height="1" fill="#2facda"/>
<rect x="14" y="29" width="8" height="1" fill="#6cd9f1"/>
<rect x="22" y="29" width="3" height="1" fill="#acf7fa"/>
<rect x="25" y="29" width="1" height="1" fill="#211f30"/>
<rect x="6" y="30" width="1" height="1" fill="#211f30"/>
<rect x="7" y="30" width="4" height="1" fill="#177aa8"/>
<rect x="11" y="30" width="3" height="1" fill="#2facda"/>
<rect x="14" y="30" width="8" height="1" fill="#6cd9f1"/>
<rect x="22" y="30" width="3" height="1" fill="#acf7fa"/>
<rect x="25" y="30" width="1" height="1" fill="#211f30"/>
<rect x="6" y="31" width="1" height="1" fill="#211f30"/>
<rect x="7" y="31" width="4" height="1" fill="#177aa8"/>
<rect x="11" y="31" width="3" height="1" fill="#2facda"/>
<rect x="14" y="31" width="8" height="1" fill="#6cd9f1"/>
<rect x="22" y="31" width="3" height="1" fill="#acf7fa"/>
<rect x="25" y="31" width="1" height="1" fill="#211f30"/>
</svg>
