<svg xmlns="http://www.w3.org/2000/svg" width="32" height="32" viewBox="0 0 32 32" shape-rendering="crispEdges"><title>tail_turn_down_to_left_4</title>
<rect x="0" y="4" width="3" height="1" fill="#211f30"/>
<rect x="0" y="5" width="3" height="1" fill="#177aa8"/>
<rect x="3" y="5" width="9" height="1" fill="#211f30"/>
<rect x="0" y="6" width="12" height="1" fill="#177aa8"/>
<rect x="12" y="6" width="1" height="1" fill="#211f30"/>
<rect x="0" y="7" width="13" height="1" fill="#177aa8"/>
<rect x="13" y="7" width="2" height="1" fill="#211f30"/>
<rect x="0" y="8" width="15" height="1" fill="#177aa8"/>
<rect x="15" y="8" width="2" height="1" fill="#211f30"/>
<rect x="0" y="9" width="17" height="1" fill="#177aa8"/>
<rect x="17" y="9" width="1" height="1" fill="#211f30"/>
<rect x="0" y="10" width="7" height="1" fill="#2facda"/>
<rect x="7" y="10" width="11" height="1" fill="#177aa8"/>
<rect x="18" y="10" width="2" height="1" fill="#211f30"/>
<rect x="0" y="11" width="16" height="1" fill="#2facda"/>
<rect x="16" y="11" width="4" height="1" fill="#177aa8"/>
<rect x="20" y="11" width="1" height="1" fill="#211f30"/>
<rect x="0" y="12" width="21" height="1" fill="#2facda"/>
<rect x="21" y="12" width="2" height="1" fill="#211f30"/>
<rect x="0" y="13" width="7" height="1" fill="#6cd9f1"/>
<rect x="7" y="13" width="16" height="1" fill="#2facda"/>
<rect x="23" y="13" width="2" height="1" fill="#211f30"/>
<rect x="0" y="14" width="11" height="1" fill="#6cd9f1"/>
<rect x="11" y="14" width="2" height="1" fill="#2facda"/>
<rect x="13" y="14" width="3" height="1" fill="#6cd9f1"/>
<rect x="16" y="14" width="9" height="1" fill="#2facda"/>
<rect x="25" y="14" width="1" height="1" fill="#211f30"/>
<rect x="0" y="15" width="11" height="1" fill="#6cd9f1"/>
<rect x="11" y="15" width="2" height="1" fill="#2facda"/>
<rect x="13" y="15" width="12" height="1" fill="#6cd9f1"/>
<rect x="25" y="15" width="1" height="1" fill="#f8d76d"/>
<rect x="26" y="15" width="2" height="1" fill="#211f30"/>
<rect x="0" y="16" width="10" height="1" fill="#6cd9f1"/>
<rect x="10" y="16" width="2" height="1" fill="#2facda"/>
<rect x="12" y="16" width="12" height="1" fill="#6cd9f1"/>
<rect x="24" y="16" width="4" height="1" fill="#f8d76d"/>
<rect x="28" y="16" width="3" height="1" fill="#211f30"/>
<rect x="0" y="17" width="24" height="1" fill="#6cd9f1"/>
<rect x="24" y="17" width="3" height="1" fill="#f8d76d"/>
<rect x="27" y="17" width="3" height="1" fill="#211f30"/>
<rect x="0" y="18" width="24" height="1" fill="#6cd9f1"/>
<rect x="24" y="18" width="3" height="1" fill="#211f30"/>
<rect x="0" y="19" width="21" height="1" fill="#6cd9f1"/>
<rect x="21" y="19" width="3" height="1" fill="#211f30"/>
<rect x="0" y="20" width="6" height="1" fill="#acf7fa"/>
<rect x="6" y="20" width="12" height="1" fill="#6cd9f1"/>
<rect x="18" y="20" width="3" height="1" fill="#211f30"/>
<rect x="0" y="21" width="15" height="1" fill="#acf7fa"/>
<rect x="15" y="21" width="3" height="1" fill="#211f30"/>
<rect x="0" y="22" width="12" height="1" fill="#acf7fa"/>
<rect x="12" y="22" width="3" height="1" fill="#211f30"/>
<rect x="0" y="23" width="3" height="1" fill="#211f30"/>
<rect x="3" y="23" width="7" height="1" fill="#acf7fa"/>
<rect x="10" y="23" width="2" height="1" fill="#211f30"/>
<rect x="3" y="24" width="7" height="1" fill="#211f30"/>
</svg>
