<svg xmlns="http://www.w3.org/2000/svg" width="32" height="32" viewBox="0 0 32 32" shape-rendering="crispEdges"><title>tail_turn_right_to_down_3</title>
<rect x="7" y="4" width="3" height="1" fill="#211f30"/>
<rect x="8" y="5" width="1" height="1" fill="#211f30"/>
<rect x="9" y="5" width="1" height="1" fill="#f8d76d"/>
<rect x="10" y="5" width="1" height="1" fill="#211f30"/>
<rect x="8" y="6" width="1" height="1" fill="#211f30"/>
<rect x="9" y="6" width="2" height="1" fill="#f8d76d"/>
<rect x="11" y="6" width="2" height="1" fill="#211f30"/>
<rect x="9" y="7" width="1" height="1" fill="#211f30"/>
<rect x="10" y="7" width="3" height="1" fill="#f8d76d"/>
<rect x="13" y="7" width="2" height="1" fill="#211f30"/>
<rect x="9" y="8" width="1" height="1" fill="#211f30"/>
<rect x="10" y="8" width="2" height="1" fill="#f8d76d"/>
<rect x="12" y="8" width="3" height="1" fill="#6cd9f1"/>
<rect x="15" y="8" width="1" height="1" fill="#211f30"/>
<rect x="9" y="9" width="1" height="1" fill="#211f30"/>
<rect x="10" y="9" width="6" height="1" fill="#6cd9f1"/>
<rect x="16" y="9" width="2" height="1" fill="#211f30"/>
<rect x="9" y="10" width="1" height="1" fill="#211f30"/>
<rect x="10" y="10" width="1" height="1" fill="#2facda"/>
<rect x="11" y="10" width="7" height="1" fill="#6cd9f1"/>
<rect x="18" y="10" width="2" height="1" fill="#211f30"/>
<rect x="9" y="11" width="1" height="1" fill="#211f30"/>
<rect x="10" y="11" width="1" height="1" fill="#2facda"/>
<rect x="11" y="11" width="9" height="1" fill="#6cd9f1"/>
<rect x="20" y="11" width="1" height="1" fill="#211f30"/>
<rect x="9" y="12" width="1" height="1" fill="#211f30"/>
<rect x="10" y="12" width="2" height="1" fill="#2facda"/>
<rect x="12" y="12" width="8" height="1" fill="#6cd9f1"/>
<rect x="20" y="12" width="1" height="1" fill="#acf7fa"/>
<rect x="21" y="12" width="2" height="1" fill="#211f30"/>
<rect x="10" y="13" width="1" height="1" fill="#211f30"/>
<rect x="11" y="13" width="2" height="1" fill="#2facda"/>
<rect x="13" y="13" width="8" height="1" fill="#6cd9f1"/>
<rect x="21" y="13" width="2" height="1" fill="#acf7fa"/>
<rect x="23" y="13" width="1" height="1" fill="#211f30"/>
<rect x="10" y="14" width="1" height="1" fill="#211f30"/>
<rect x="11" y="14" width="2" height="1" fill="#2facda"/>
<rect x="13" y="14" width="9" height="1" fill="#6cd9f1"/>
<rect x="22" y="14" width="2" height="1" fill="#acf7fa"/>
<rect x="24" y="14" width="2" height="1" fill="#211f30"/>
<rect x="10" y="15" width="1" height="1" fill="#211f30"/>
<rect x="11" y="15" width="3" height="1" fill="#2facda"/>
<rect x="14" y="15" width="8" height="1" fill="#6cd9f1"/>
<rect x="22" y="15" width="4" height="1" fill="#acf7fa"/>
<rect x="26" y="15" width="2" height="1" fill="#211f30"/>
<rect x="10" y="16" width="1" height="1" fill="#211f30"/>
<rect x="11" y="16" width="4" height="1" fill="#2facda"/>
<rect x="15" y="16" width="8" height="1" fill="#6cd9f1"/>
<rect x="23" y="16" width="5" height="1" fill="#acf7fa"/>
<rect x="28" y="16" width="1" height="1" fill="#211f30"/>
<rect x="10" y="17" width="1" height="1" fill="#211f30"/>
<rect x="11" y="17" width="1" height="1" fill="#177aa8"/>
<rect x="12" y="17" width="3" height="1" fill="#2facda"/>
<rect x="15" y="17" width="9" height="1" fill="#6cd9f1"/>
<rect x="24" y="17" width="4" height="1" fill="#acf7fa"/>
<rect x="28" y="17" width="1" height="1" fill="#211f30"/>
<rect x="10" y="18" width="1" height="1" fill="#211f30"/>
<rect x="11" y="18" width="1" height="1" fill="#177aa8"/>
<rect x="12" y="18" width="4" height="1" fill="#2facda"/>
<rect x="16" y="18" width="8" height="1" fill="#6cd9f1"/>
<rect x="24" y="18" width="5" height="1" fill="#acf7fa"/>
<rect x="29" y="18" width="1" height="1" fill="#211f30"/>
<rect x="10" y="19" width="1" height="1" fill="#211f30"/>
<rect x="11" y="19" width="2" height="1" fill="#177aa8"/>
<rect x="13" y="19" width="3" height="1" fill="#2facda"/>
<rect x="16" y="19" width="1" height="1" fill="#6cd9f1"/>
<rect x="17" y="19" width="3" height="1" fill="#2facda"/>
<rect x="20" y="19" width="5" height="1" fill="#6cd9f1"/>
<rect x="25" y="19" width="4" height="1" fill="#acf7fa"/>
<rect x="29" y="19" width="1" height="1" fill="#211f30"/>
<rect x="11" y="20" width="1" height="1" fill="#211f30"/>
<rect x="12" y="20" width="2" height="1" fill="#177aa8"/>
<rect x="14" y="20" width="5" height="1" fill="#2facda"/>
<rect x="19" y="20" width="6" height="1" fill="#6cd9f1"/>
<rect x="25" y="20" width="5" height="1" fill="#acf7fa"/>
<rect x="30" y="20" width="1" height="1" fill="#211f30"/>
<rect x="11" y="21" width="1" height="1" fill="#211f30"/>
<rect x="12" y="21" width="2" height="1" fill="#177aa8"/>
<rect x="14" y="21" width="4" height="1" fill="#2facda"/>
<rect x="18" y="21" width="8" height="1" fill="#6cd9f1"/>
<rect x="26" y="21" width="5" height="1" fill="#acf7fa"/>
<rect x="31" y="21" width="1" height="1" fill="#211f30"/>
<rect x="11" y="22" width="1" height="1" fill="#211f30"/>
<rect x="12" y="22" width="3" height="1" fill="#177aa8"/>
<rect x="15" y="22" width="3" height="1" fill="#2facda"/>
<rect x="18" y="22" width="9" height="1" fill="#6cd9f1"/>
<rect x="27" y="22" width="5" height="1" fill="#acf7fa"/>
<rect x="11" y="23" width="1" height="1" fill="#211f30"/>
<rect x="12" y="23" width="4" height="1" fill="#177aa8"/>
<rect x="16" y="23" width="3" height="1" fill="#2facda"/>
<rect x="19" y="23" width="8" height="1" fill="#6cd9f1"/>
<rect x="27" y="23" width="5" height="1" fill="#acf7fa"/>
<rect x="11" y="24" width="1" height="1" fill="#211f30"/>
<rect x="12" y="24" width="4" height="1" fill="#177aa8"/>
<rect x="16" y="24" width="4" height="1" fill="#2facda"/>
<rect x="20" y="24" width="8" height="1" fill="#6cd9f1"/>
<rect x="28" y="24" width="4" height="1" fill="#acf7fa"/>
<rect x="11" y="25" width="1" height="1" fill="#211f30"/>
<rect x="12" y="25" width="5" height="1" fill="#177aa8"/>
<rect x="17" y="25" width="3" height="1" fill="#2facda"/>
<rect x="20" y="25" width="9" height="1" fill="#6cd9f1"/>
<rect x="29" y="25" width="3" height="1" fill="#acf7fa"/>
<rect x="11" y="26" width="1" height="1" fill="#211f30"/>
<rect x="12" y="26" width="5" height="1" fill="#177aa8"/>
<rect x="17" y="26" width="4" height="1" fill="#2facda"/>
<rect x="21" y="26" width="8" height="1" fill="#6cd9f1"/>
<rect x="29" y="26" width="3" height="1" fill="#acf7fa"/>
<rect x="12" y="27" width="1" height="1" fill="#211f30"/>
<rect x="13" y="27" width="5" height="1" fill="#177aa8"/>
<rect x="18" y="27" width="4" height="1" fill="#2facda"/>
<rect x="22" y="27" width="8" height="1" fill="#6cd9f1"/>
<rect x="30" y="27" width="2" height="1" fill="#acf7fa"/>
<rect x="12" y="28" width="1" height="1" fill="#211f30"/>
<rect x="13" y="28" width="6" height="1" fill="#177aa8"/>
<rect x="19" y="28" width="3" height="1" fill="#2facda"/>
<rect x="22" y="28" width="9" height="1" fill="#6cd9f1"/>
<rect x="31" y="28" width="1" height="1" fill="#acf7fa"/>
<rect x="13" y="29" width="1" height="1" fill="#211f30"/>
<rect x="14" y="29" width="5" height="1" fill="#177aa8"/>
<rect x="19" y="29" width="4" height="1" fill="#2facda"/>
<rect x="23" y="29" width="8" height="1" fill="#6cd9f1"/>
<rect x="31" y="29" width="1" height="1" fill="#acf7fa"/>
<rect x="14" y="30" width="1" height="1" fill="#211f30"/>
<rect x="15" y="30" width="5" height="1" fill="#177aa8"/>
<rect x="20" y="30" width="4" height="1" fill="#2facda"/>
<rect x="24" y="30" width="8" height="1" fill="#6cd9f1"/>
<rect x="14" y="31" width="1" height="1" fill="#211f30"/>
<rect x="15" y="31" width="6" height="1" fill="#177aa8"/>
<rect x="21" y="31" width="3" height="1" fill="#2facda"/>
<rect x="24" y="31" width="8" height="1" fill="#6cd9f1"/>
</svg>
